<svg xmlns="http://www.w3.org/2000/svg" width="19" height="31" viewBox="0 0 19 31"><defs><clipPath id="3a4ka"><path fill="#fff" d="M9.5 0A9.5 9.5 0 0 1 19 9.5v12a9.5 9.5 0 0 1-19 0v-12A9.5 9.5 0 0 1 9.5 0z"/></clipPath><clipPath id="3a4kb"><path fill="#fff" d="M9.5 7a.5.5 0 0 1 .5.5v4a.5.5 0 0 1-1 0v-4a.5.5 0 0 1 .5-.5z"/></clipPath></defs><g><g><g><path fill="none" stroke="#fff" stroke-miterlimit="20" stroke-width="4" d="M9.5 0A9.5 9.5 0 0 1 19 9.5v12a9.5 9.5 0 0 1-19 0v-12A9.5 9.5 0 0 1 9.5 0z" clip-path="url(&quot;#3a4ka&quot;)"/></g><g><path fill="none" stroke="#fff" stroke-miterlimit="20" stroke-width="4" d="M9.5 7a.5.5 0 0 1 .5.5v4a.5.5 0 0 1-1 0v-4a.5.5 0 0 1 .5-.5z" clip-path="url(&quot;#3a4kb&quot;)"/></g></g></g></svg>