<svg width="44" height="44" viewBox="0 0 44 44" fill="none" xmlns="http://www.w3.org/2000/svg">
<path fill-rule="evenodd" clip-rule="evenodd" d="M15.1454 11.732C16.0216 9.0142 18.6367 7 21.7965 7C24.9562 7 27.5713 9.0142 28.4475 11.732L21.7965 11.732L15.1454 11.732ZM30.5823 11.9856C30.5646 11.9007 30.5456 11.8161 30.5254 11.732C29.597 7.87335 26.0413 5 21.7965 5C17.5517 5 13.9959 7.87335 13.0676 11.7321C13.0473 11.8161 13.0284 11.9007 13.0106 11.9856H4.50023C4.17694 11.9856 3.93864 12.2878 4.01401 12.6022L10.0548 37.7984C10.1087 38.0232 10.3098 38.1818 10.541 38.1818H33.0521C33.2833 38.1818 33.4844 38.0232 33.5383 37.7984L39.579 12.6022C39.6544 12.2878 39.4161 11.9856 39.0928 11.9856H30.5823ZM14.8313 13.7321L12.8313 13.7321H6.0214L11.3726 36.052C11.4265 36.2768 11.6276 36.4354 11.8588 36.4354H31.7342C31.9655 36.4354 32.1666 36.2768 32.2205 36.052L37.5717 13.7321L14.8313 13.7321Z" fill="white"/>
</svg>
