<svg width="69" height="69" viewBox="0 0 69 69" fill="none" xmlns="http://www.w3.org/2000/svg">
<path d="M14.8845 62.3521L19.6629 62.3858C20.401 62.4044 21.0899 61.7918 21.1764 60.9467L21.3201 23.3898C21.3388 22.6517 20.7261 21.9628 19.8811 21.8763C19.1429 21.8576 18.4541 22.4703 18.3676 23.3153L18.1932 59.5029L16.2604 59.4758L16.4595 10.2546L24.54 10.2846C25.2782 10.3033 25.9671 9.69066 26.0536 8.84561L26.077 3.61075L42.6945 3.66069L42.4963 8.93459C42.5065 9.39105 42.6524 9.63369 42.9053 9.94421C43.1581 10.2547 43.5467 10.3514 43.8284 10.3803L46.6741 10.3869L46.5694 48.1186C46.5507 48.8567 47.1634 49.5456 48.0084 49.6321C48.7466 49.6507 49.4354 49.0381 49.5219 48.1931L49.6266 10.4614L52.0158 10.4782L51.7099 59.6316L43.6294 59.6015C42.8912 59.5829 42.2023 60.1955 42.1158 61.0405L42.0924 66.2754L25.4749 66.2255L25.4983 60.9906C25.517 60.2525 24.9043 59.5636 24.0593 59.4771C23.6028 59.4873 23.3602 59.6332 23.0497 59.8861C22.7392 60.1389 22.6425 60.5275 22.6136 60.8092L22.5529 67.5204C22.8448 68.0056 23.0298 68.4231 23.2827 68.7336C23.5355 69.0441 23.9241 69.1408 24.2058 69.1696L43.6689 69.2262C44.4071 69.2448 45.096 68.6322 45.1825 67.7871L45.2059 62.5523L53.2864 62.5824C53.7429 62.5722 53.9855 62.4262 54.2961 62.1734C54.6066 61.9205 54.7033 61.5319 54.8 61.1433L54.9028 35.1099L55.0057 9.0764C55.0243 8.33826 54.4117 7.64936 53.5666 7.56287L45.4861 7.5328L45.5096 2.29794C45.5282 1.55979 44.9156 0.870899 44.0705 0.784407L24.5004 0.659976C24.044 0.670185 23.8013 0.81613 23.4908 1.06898C23.1803 1.32183 23.0836 1.71042 23.0548 1.99211L23.0313 7.22697L14.9508 7.1969C14.6403 7.44975 14.2907 7.52782 13.9802 7.78068C13.6697 8.03353 13.573 8.42212 13.4763 8.81071L13.3775 60.9455C13.3878 61.402 13.5337 61.6446 13.7865 61.9551C14.1073 62.1587 14.428 62.3623 14.8845 62.3521Z" fill="#444444"/>
<path d="M30.3736 60.6355C31.0931 61.3923 32.191 61.7893 33.2108 61.8367C34.2307 61.8842 35.2403 61.4752 36.0649 60.6487C36.8217 59.9292 37.2187 58.8313 37.2661 57.8115L37.3077 42.3886C38.0356 41.9508 38.6566 41.4451 39.2776 40.9394C40.859 39.3934 41.76 37.2655 41.7089 34.9832C41.7444 31.8558 40.0321 29.1189 37.3984 27.5969L37.44 12.174C37.4874 11.1542 37.0784 10.1446 36.252 9.31996C35.5325 8.5632 34.4346 8.16619 33.4147 8.11874C32.3949 8.07129 31.3853 8.48029 30.5607 9.30672C29.8039 10.0262 29.4069 11.1241 29.3594 12.144L29.3179 27.5669C28.59 28.0047 27.9689 28.5104 27.3479 29.0161C25.7665 30.562 24.8656 32.69 24.9166 34.9723C24.8812 38.0996 26.5935 40.8366 29.2271 42.3585L29.1856 57.7814C29.2451 58.8691 29.6541 59.8787 30.3736 60.6355ZM32.0313 57.788L32.1202 41.3453C32.071 40.7141 31.6722 40.1609 31.1767 39.9964C29.0488 39.0954 27.7743 37.0864 27.8302 34.872C27.8674 33.3957 28.468 31.9771 29.4284 30.9368C29.9425 30.3633 30.6026 30.0323 31.0879 29.7405L31.2626 29.7014C31.8548 29.4774 32.1942 28.9429 32.2518 28.3795L32.273 12.0437C32.2237 11.4124 32.8447 10.9067 33.4081 10.9644C33.6898 10.9932 33.9715 11.0221 34.2243 11.3326C34.3703 11.5752 34.5162 11.8179 34.5943 12.1674L34.5732 28.5032C34.5155 29.0666 34.9143 29.6198 35.5167 29.8522C37.6447 30.7531 38.987 32.6552 38.9702 35.0444C38.9329 36.5207 38.3323 37.9393 37.3719 38.9796C36.8578 39.5531 36.1978 39.8841 35.7125 40.176L35.5377 40.215C34.9455 40.439 34.6061 40.9736 34.5485 41.5369L34.3136 57.737C34.3628 58.3682 33.7418 58.8739 33.1784 58.8163C32.8967 58.7875 32.6151 58.7586 32.3622 58.4481C32.1484 58.3124 32.0024 58.0697 32.0313 57.788Z" fill="#444444"/>
<path d="M21.1605 19.3886L21.2248 15.9796C21.2434 15.2414 20.6308 14.5525 19.7857 14.466C19.3293 14.4763 19.0866 14.6222 18.7761 14.8751C18.4656 15.1279 18.3689 15.5165 18.3401 15.7982L18.2758 19.2072C18.2571 19.9453 18.8698 20.6342 19.7148 20.7207C20.5599 20.8072 21.1418 20.1267 21.1605 19.3886Z" fill="#444444"/>
</svg>
