<svg width="69" height="69" viewBox="0 0 69 69" fill="none" xmlns="http://www.w3.org/2000/svg">
<path d="M25.5948 69.4307L46.6331 69.4623C50.3298 69.4692 53.3341 66.492 53.341 62.7953C53.2778 62.692 53.381 62.6288 53.3177 62.5255L45.7578 15.889C45.5847 15.143 44.9986 14.6501 44.1893 14.7199C43.4433 14.8931 42.9503 15.4792 43.0202 16.2885L50.5801 62.925C50.4967 65.1064 48.7881 66.7215 46.6699 66.7413L25.6316 66.7098C23.5135 66.7296 21.7318 64.981 21.712 62.8629L29.169 16.3974L29.2089 16.2308C29.1324 14.7155 30.0551 13.44 31.2541 12.8473L41.0355 12.818C41.7016 12.9779 42.4476 12.8048 42.774 12.1787C43.1005 11.5526 42.8641 10.7034 42.238 10.3769L40.7233 1.64778C40.6134 1.005 40.0273 0.51205 39.3213 0.518659L32.8003 0.538155C32.1342 0.378245 31.578 0.861117 31.5213 1.46392L30.0053 10.346C27.9804 11.4449 26.4848 13.6396 26.4247 16.0908L18.9678 62.5563L18.9278 62.7228C18.9841 66.5228 21.9613 69.527 25.5948 69.4307ZM33.9458 3.10267L38.1821 3.06302L39.2806 9.49081L39.1141 9.45084L33.1327 9.42375C33.1327 9.42375 32.9662 9.38377 32.8629 9.44704L33.9458 3.10267Z" fill="#444444"/>
<path d="M28.2651 32.9994L24.1701 59.2262L24.1301 59.3927C24.0932 62.1137 26.2945 64.3152 29.1187 64.2888L43.303 64.2599C46.0239 64.2967 48.2255 62.0955 48.199 59.2713C48.1924 58.5652 47.6463 57.9058 46.837 57.9756C46.1309 57.9823 45.4715 58.5284 45.5414 59.3377C45.5946 60.5833 44.4821 61.549 43.3398 61.5389L29.1555 61.5679C28.0132 61.5578 27.0075 60.6119 27.0175 59.4695L31.1759 33.346C31.2725 32.5767 30.8296 31.854 30.0603 31.7573L29.8938 31.7173C28.9812 31.8505 28.425 32.3334 28.2651 32.9994Z" fill="#444444"/>
<path d="M30.4635 28.2438C31.2328 28.3404 31.8923 27.7943 32.0522 27.1282L32.7753 22.2825C32.8719 21.5132 32.3258 20.8537 31.6597 20.6938L31.4932 20.6538C30.7871 20.6605 30.2309 21.1433 30.1743 21.7461L29.4512 26.5918C29.188 27.3212 29.6942 28.1472 30.4635 28.2438Z" fill="#444444"/>
</svg>
