<svg width="69" height="69" viewBox="0 0 69 69" fill="none" xmlns="http://www.w3.org/2000/svg">
<path d="M31.1718 50.1616C30.6642 49.737 29.8972 49.6783 29.4726 50.1859C29.048 50.6935 28.9894 51.4605 29.4969 51.8851C30.7837 53.2179 32.5776 53.9723 34.4302 53.9597C34.737 53.9831 35.0555 53.8532 35.3032 53.6407C35.5509 53.4282 35.657 53.0506 35.6804 52.7437C35.6565 52.0476 35.1607 51.4696 34.4645 51.4935C33.2373 51.3996 32.0335 50.999 31.1718 50.1616Z" fill="#444444"/>
<path d="M27.2857 40.452L27.2766 46.6234C27.3005 47.3196 27.7964 47.8975 28.4926 47.8736C28.7994 47.8971 29.1179 47.7672 29.3656 47.5546C29.6133 47.3421 29.7193 46.9645 29.7428 46.6577L29.7519 40.4864C29.7271 37.7842 31.8974 35.6357 34.5169 35.6817C35.2131 35.6578 35.7911 35.162 35.7672 34.4658C35.7433 33.7696 35.2474 33.1916 34.5513 33.2156C30.5393 33.2173 27.284 36.4401 27.2857 40.452Z" fill="#444444"/>
<path d="M37.5456 0.115592C29.5569 -0.3411 21.653 4.14631 14.2232 13.5305C13.8812 13.9672 13.8343 14.5808 14.1884 14.9936L23.1858 28.4887C23.5283 29.055 24.3661 29.1962 24.9324 28.8538C25.4986 28.5113 25.6399 27.6735 25.2974 27.1072L16.6307 14.3318C23.5064 6.13967 30.443 2.19548 37.4405 2.49921C41.9717 2.76862 45.9728 4.92624 49.1009 7.40284L44.385 16.6088C44.0312 17.1989 44.3619 17.9186 44.9521 18.2723C45.4714 18.5435 46.0259 18.3544 46.3562 18.0711C46.4388 18.0003 46.5213 17.9294 46.5331 17.776L50.9778 9.08939C53.2797 11.2714 54.8972 13.3238 55.6647 14.3855L42.9631 30.1556C41.8419 29.6841 40.5556 29.3543 39.2458 29.3313L32.3075 29.2635C32.3075 29.2635 32.2249 29.3344 32.1541 29.2518L24.5351 10.8474C24.2752 10.2103 23.6025 9.92738 22.9654 10.1873C22.2458 10.518 22.0337 11.2733 22.2936 11.9103L29.7235 29.7603C28.1426 30.2565 26.7741 31.0005 25.5239 32.2165C23.6839 34.0816 22.6466 36.5483 22.6005 39.1679L22.5454 47.9588C22.4993 50.5784 23.468 53.0441 25.3332 54.8841C25.6874 55.2969 26.1241 55.6389 26.5609 55.9809C25.039 56.7132 24.249 57.9643 24.2498 59.9703C24.2507 61.9763 24.9595 63.8049 26.3879 65.3029C27.7455 66.7183 29.6103 67.5552 31.6163 67.5544L39.6402 67.5508C41.6461 67.55 43.4865 66.6878 44.8194 65.401C46.2347 64.0434 47.0717 62.1786 47 60.0901C46.9761 59.3939 46.4803 58.816 45.7841 58.8399C45.0879 58.8638 44.5099 59.3596 44.5338 60.0558C44.476 62.8288 42.3766 65.0599 39.6036 65.0021L31.5797 65.0056C30.27 64.9826 28.9954 64.4993 28.1453 63.5085C27.2127 62.5886 26.693 61.3144 26.716 60.0046C26.7508 58.5414 27.2345 58.2698 27.7181 57.9982C28.5912 57.6792 29.9835 57.6314 31.4467 57.6662L39.7774 57.6861C39.7774 57.6861 39.9308 57.6978 40.0134 57.627C42.2671 57.4136 44.426 56.4215 46.0891 54.8514C47.9291 52.9862 48.9664 50.5196 49.0124 47.9L48.9024 39.2507C48.9485 36.6311 47.9798 34.1654 46.1146 32.3254C45.8313 31.9952 45.4654 31.7357 45.0995 31.4763L58.0722 15.1868C58.4142 14.7501 58.3785 14.2073 58.1778 13.8062C57.8353 13.2399 49.9122 0.829963 37.5456 0.115592ZM46.4363 39.2164L46.3811 48.0073C46.382 50.0133 45.545 51.878 44.2005 53.3182C42.7851 54.6758 41.0273 55.4672 39.1038 55.3972L32.1655 55.3295C30.2421 55.2595 28.4482 54.5051 27.008 53.1606C25.6504 51.7452 24.9416 49.9165 24.9407 47.9105L24.9959 39.1196C24.995 37.1136 25.832 35.2489 27.1765 33.8087C28.5919 32.4511 30.3497 31.6598 32.2731 31.7297L39.2115 31.7975C41.1349 31.8674 42.9288 32.6218 44.369 33.9664C45.7266 35.3818 46.4354 37.2104 46.4363 39.2164Z" fill="#444444"/>
<path d="M42.3003 25.7074C42.3829 25.6366 42.4654 25.5658 42.5597 25.3415L44.4697 21.5529C44.8234 20.9628 44.4927 20.2431 43.9025 19.8894C43.3124 19.5357 42.5927 19.8664 42.239 20.4565L40.3291 24.2451C39.9754 24.8353 40.3061 25.5549 40.8962 25.9086C41.4155 26.1798 41.9583 26.1442 42.3003 25.7074Z" fill="#444444"/>
</svg>
