<svg width="29" height="18" viewBox="0 0 29 18" fill="none" xmlns="http://www.w3.org/2000/svg">
<path fill-rule="evenodd" clip-rule="evenodd" d="M0.0015191 1.88911C0.0015191 0.907267 0.797458 0.111328 1.7793 0.111328H26.8169C27.7988 0.111328 28.5947 0.907267 28.5947 1.88911C28.5947 2.87095 27.7988 3.66689 26.8169 3.66689H1.7793C0.797456 3.66689 0.0015191 2.87095 0.0015191 1.88911ZM0.00143433 9C0.00143433 8.01816 0.797373 7.22222 1.77921 7.22222H26.8168C27.7987 7.22222 28.5946 8.01816 28.5946 9C28.5946 9.98184 27.7987 10.7778 26.8168 10.7778H1.77921C0.797371 10.7778 0.00143433 9.98184 0.00143433 9ZM1.77921 14.3333C0.797373 14.3333 0.00143433 15.1293 0.00143433 16.1111C0.00143433 17.093 0.797371 17.8889 1.77921 17.8889H26.8168C27.7987 17.8889 28.5946 17.093 28.5946 16.1111C28.5946 15.1293 27.7987 14.3333 26.8168 14.3333H1.77921Z" fill="white"/>
</svg>
