<svg width="64" height="63" viewBox="0 0 64 63" fill="none" xmlns="http://www.w3.org/2000/svg">
<path d="M54.6572 12.1916C50.8139 6.76572 43.3533 5.29621 37.8144 9.13953C37.2492 9.59169 37.1362 10.383 37.4753 10.9482C37.9275 11.5134 38.7187 11.6264 39.2839 11.2873C43.5794 8.23522 49.5705 9.36561 52.6225 13.6611C53.8659 15.4697 54.4311 17.5044 54.3181 19.6522C54.3181 20.3304 54.7703 21.0086 55.5615 21.0086C55.6746 21.0086 55.7876 21.0086 56.0137 21.0086C56.5789 20.8956 56.918 20.4434 56.918 19.8782C57.031 17.0523 56.2398 14.3393 54.6572 12.1916Z" fill="#444444"/>
<path d="M53.301 23.2694C52.6228 24.7389 51.4924 25.9823 50.249 26.8866C49.6838 27.3388 49.5708 28.1301 49.9099 28.6953C50.249 29.1474 50.8142 29.3735 51.2663 29.1474C51.3794 29.1474 51.4924 29.0344 51.6055 28.9213C53.301 27.7909 54.6575 26.2084 55.5618 24.3998C55.9009 23.7215 55.6749 23.0433 54.9966 22.7042C54.4314 22.4781 53.6402 22.7042 53.301 23.2694Z" fill="#444444"/>
<path d="M62.57 13.7741C59.744 3.82664 49.3444 -2.05139 39.397 0.661548C33.1799 2.35713 28.3192 7.10477 26.3975 13.2089L0.850727 22.5911C0.285532 22.8172 -0.166624 23.4954 0.059454 24.1737L3.56366 36.9471C3.78974 37.6253 4.35494 37.9644 5.03317 37.8514L31.5973 32.6516C34.1972 35.0254 37.4754 36.6079 40.8665 37.2862V37.3992L45.9533 55.9376C47.1967 60.3461 51.7183 62.946 56.2398 61.7026C60.6483 60.4592 63.2482 55.9376 62.0048 51.416L56.805 32.7646C62.2309 28.2431 64.4917 20.7825 62.57 13.7741ZM54.5442 31.5212C54.0921 31.8603 53.979 32.3125 54.0921 32.8777L59.518 52.2073C60.4223 55.2594 58.6136 58.4245 55.4486 59.3288C52.3965 60.2331 49.2314 58.4245 48.3271 55.2594L46.4054 47.6858L49.1184 46.8945C49.7966 46.6684 50.2488 45.9902 50.0227 45.3119C49.7966 44.6337 49.1184 44.1815 48.4401 44.4076L45.7272 45.1989L45.3881 44.0685L48.101 43.2772C48.7793 43.0512 49.2314 42.3729 49.0053 41.6947C48.7793 41.0165 48.101 40.5643 47.4228 40.7904L44.7098 41.5817L43.5795 37.5122C45.5011 37.6253 47.4228 37.3992 49.3444 36.834C50.0227 36.6079 50.4748 35.9297 50.2488 35.2515C50.0227 34.5732 49.3444 34.1211 48.6662 34.3472C43.0143 35.9297 37.0232 34.3472 32.8408 30.2778C32.7277 30.1647 32.7277 30.1647 32.6147 30.0517C32.5016 30.0517 32.5016 29.9386 32.3886 29.9386C32.2756 29.9386 32.2756 29.9386 32.1625 29.9386C32.1625 29.9386 32.1625 29.9386 32.0495 29.9386C31.9364 29.9386 31.9364 29.9386 31.8234 29.9386H31.7104H31.5973L5.59836 35.0254L2.65935 24.5128L27.641 15.2436H27.754H27.867L27.9801 15.1305C27.9801 15.1305 27.9801 15.1305 28.0931 15.1305L28.2062 15.0175C28.2062 15.0175 28.2062 15.0175 28.3192 14.9045L28.4322 14.7914C28.4322 14.7914 28.4322 14.7914 28.4322 14.6784C28.4322 14.6784 28.4322 14.5653 28.5453 14.4523C30.2409 9.02643 34.5363 4.61791 40.0753 3.1484C48.6662 0.774587 57.7093 5.86134 60.0831 14.4523C61.7787 20.7825 59.631 27.4518 54.5442 31.5212Z" fill="#444444"/>
<path d="M23.2325 28.0169L7.97228 30.8429C7.29405 30.956 6.84189 31.6342 6.95493 32.3124C7.06797 32.9907 7.74621 33.4428 8.42444 33.3298L23.6847 30.5038H23.7977C24.476 30.2777 24.8151 29.7125 24.7021 29.0343C24.589 28.3561 23.9108 27.9039 23.2325 28.0169Z" fill="#444444"/>
<path d="M49.5706 18.0697C48.7793 15.3567 45.9534 13.6611 43.2404 14.4524C40.5275 15.2437 38.8319 18.0697 39.6232 20.7826C40.4145 23.4955 43.2404 25.1911 45.9534 24.3998C48.6663 23.6086 50.3619 20.7826 49.5706 18.0697ZM45.2751 21.913C43.9187 22.2521 42.4492 21.4608 41.997 20.1044C41.6579 18.7479 42.4492 17.2784 43.8056 16.8262C45.1621 16.4871 46.6316 17.2784 47.0838 18.6348C47.5359 20.1044 46.6316 21.5739 45.2751 21.913Z" fill="#444444"/>
</svg>
