<svg width="20" height="20" viewBox="0 0 20 20" fill="none" xmlns="http://www.w3.org/2000/svg">
<path d="M18.29 4C17.29 3 13.49 3 10 3C6.51 3 2.67 3 1.72 4C0.77 5 0.5 6.09 0.5 10C0.5 13.91 0.77 15.06 1.72 16C2.67 16.94 6.52 17 10 17C13.48 17 17.33 17 18.29 16C19.25 15 19.5 13.89 19.5 10C19.5 6.11 19.24 4.94 18.29 4ZM13.35 10.18L7.8 13.38C7.65 13.46 7.54 13.38 7.54 13.22V6.78C7.54 6.61 7.66 6.54 7.8 6.62L13.35 9.84C13.5 9.94 13.5 10.08 13.35 10.16V10.18Z" stroke="#222222" stroke-linecap="round" stroke-linejoin="round"/>
</svg>
