<svg width="20" height="20" viewBox="0 0 20 20" fill="none" xmlns="http://www.w3.org/2000/svg">
<path d="M10 17.5C7.8 17.5 7.5 17.5 6.66667 17.45C6.06332 17.4381 5.46621 17.3254 4.9 17.1167C4.4466 16.9435 4.03485 16.6765 3.69166 16.3333C3.34846 15.9901 3.08154 15.5784 2.90833 15.125C2.6883 14.5524 2.56713 13.9465 2.55 13.3333C2.5 12.5 2.5 12.2083 2.5 10C2.5 7.79167 2.5 7.5 2.55 6.66667C2.56192 6.06332 2.67459 5.46621 2.88333 4.9C3.05357 4.44198 3.31915 4.02535 3.6625 3.67769C4.00586 3.33003 4.41914 3.05927 4.875 2.88333C5.44911 2.67183 6.0549 2.55913 6.66667 2.55C7.5 2.5 7.79167 2.5 10 2.5C12.2083 2.5 12.5 2.5 13.3333 2.55C13.9367 2.56192 14.5338 2.67459 15.1 2.88333C15.5534 3.05654 15.9651 3.32346 16.3083 3.66666C16.6515 4.00985 16.9185 4.4216 17.0917 4.875C17.3117 5.44762 17.4329 6.05346 17.45 6.66667C17.45 7.5 17.5 7.825 17.5 10C17.5 12.175 17.5 12.5 17.45 13.3333C17.4381 13.9367 17.3254 14.5338 17.1167 15.1C16.9435 15.5534 16.6765 15.9651 16.3333 16.3083C15.9901 16.6515 15.5784 16.9185 15.125 17.0917C14.5588 17.3004 13.9617 17.4131 13.3583 17.425C12.5 17.5 12.2 17.5 10 17.5Z" stroke="#222222" stroke-linecap="round" stroke-linejoin="round"/>
<path d="M10 12.5485C9.49594 12.5485 9.00318 12.399 8.58405 12.119C8.16493 11.8389 7.83826 11.4409 7.64536 10.9752C7.45246 10.5095 7.40199 9.997 7.50033 9.50261C7.59867 9.00822 7.8414 8.55409 8.19784 8.19766C8.55428 7.84122 9.0084 7.59849 9.50279 7.50014C9.99718 7.4018 10.5096 7.45228 10.9753 7.64518C11.441 7.83808 11.8391 8.16475 12.1191 8.58387C12.3992 9.003 12.5487 9.49575 12.5487 9.99983C12.5487 10.6758 12.2801 11.324 11.8022 11.802C11.3242 12.28 10.676 12.5485 10 12.5485Z" stroke="#222222" stroke-linecap="round" stroke-linejoin="round"/>
<path d="M14.9225 5.55371C14.9225 5.82985 14.6986 6.05371 14.4225 6.05371C14.1463 6.05371 13.9225 5.82985 13.9225 5.55371C13.9225 5.27757 14.1463 5.05371 14.4225 5.05371C14.6986 5.05371 14.9225 5.27757 14.9225 5.55371Z" stroke="#222222"/>
</svg>
