<svg width="69" height="69" viewBox="0 0 69 69" fill="none" xmlns="http://www.w3.org/2000/svg">
<path d="M30.6088 54.0562C30.8513 53.8146 30.999 53.5247 30.9571 53.1382L30.0735 26.517C30.0353 25.8889 29.4702 25.3575 28.8485 25.4059C28.2269 25.4543 27.6926 26.0342 27.7308 26.6623L28.6144 53.2835C28.6526 53.9116 29.2177 54.4429 29.8394 54.3945C30.173 54.4428 30.5103 54.2495 30.6088 54.0562Z" fill="#444444"/>
<path d="M29.2499 57.2045L29.413 60.1381C29.4644 60.7344 30.0302 61.2507 30.6385 61.2186C30.9667 61.2718 31.1991 61.0481 31.3853 60.915C31.6177 60.6913 31.756 60.4198 31.7064 60.0524L31.5434 57.1189C31.492 56.5226 30.9262 56.0062 30.3178 56.0383C29.7094 56.0704 29.1985 56.6082 29.2499 57.2045Z" fill="#444444"/>
<path d="M44.0598 0.0337567C43.3404 0.0274812 42.8091 0.597453 42.853 1.22033L42.8345 4.09319L40.6762 4.07437L40.6462 1.29684C40.6508 0.578628 40.0787 0.0469152 39.4549 0.0893579C38.7354 0.0830825 38.2041 0.653055 38.2481 1.27593L38.2295 4.14879L36.0713 4.12997L36.0412 1.35245C36.1415 0.682946 35.5693 0.151234 34.8499 0.144959C34.2261 0.187401 33.7434 0.662029 33.6431 1.33153L33.6732 4.10905L31.5619 4.23429L31.5805 1.36142C31.5365 0.738548 30.9644 0.206835 30.2936 0.105216C29.6697 0.147659 29.1385 0.71763 29.1338 1.43585L29.1638 4.21337L27.0056 4.19454L26.9755 1.41702C26.9802 0.698804 26.408 0.167092 25.6886 0.160817C25.0648 0.20326 24.5335 0.773231 24.5775 1.3961L24.5589 4.26897C21.9195 4.48537 19.8899 6.81397 19.8729 9.44743C19.8482 13.2779 23.8293 13.2648 25.1725 13.2286L27.3794 13.1521L27.4394 18.7071C24.8848 20.6481 23.0449 23.3135 23.0248 26.4258L24.733 59.0017C24.7646 61.5398 25.804 63.9909 27.5674 65.7301C29.4265 67.5181 31.8184 68.4966 34.3607 68.4709L36.7588 68.4918C39.3966 68.5148 41.8025 67.3387 43.4919 65.6775C45.23 63.921 46.2047 61.5353 46.1731 58.9972L47.2 26.2536C47.2093 24.8172 46.7389 23.3765 45.9316 22.1245C45.6479 21.4996 45.0256 21.3026 44.3517 21.6798C43.8219 22.0104 43.6731 22.7752 44.0054 23.3048C44.623 24.22 44.9523 25.2284 44.9461 26.1861L43.9192 58.9296C43.9415 62.9042 40.7553 66.0846 36.8698 66.1465L34.4717 66.1256C30.4906 66.1387 27.2976 62.9505 27.2753 58.976L25.4715 26.3514C25.4492 22.3768 30.0742 19.2089 33.9598 19.1471L36.3578 19.168C37.9409 19.1339 39.5208 19.5786 41.0021 20.4535C41.5758 20.7458 42.3438 20.6567 42.6838 19.9893C42.8296 19.7033 42.8797 19.3685 42.7856 19.0804L42.7287 13.0465L45.1268 13.0675C45.9904 13.0271 48.1486 13.0459 49.404 11.764C49.9353 11.194 50.3725 10.336 50.3317 9.23427C50.3409 7.79784 49.7734 6.54791 48.7248 5.5332C47.7717 4.56721 46.5758 4.07794 45.2811 4.01877L45.2997 1.1459C45.2072 0.61837 44.6836 -0.00868616 44.0598 0.0337567ZM47.885 9.3087C47.9289 9.93157 47.9243 10.6498 45.1422 10.6734L32.9104 10.8061C32.575 10.7553 32.2381 10.9439 31.9967 11.1812C31.7554 11.4185 31.6096 11.7046 31.6551 12.088C31.6505 12.8063 32.2226 13.338 32.8464 13.2955L40.2334 13.2163L40.3012 17.5743C39.0096 17.0363 37.5723 16.7844 36.2291 16.8206L33.831 16.7996C32.4878 16.8358 31.143 17.1114 29.7967 17.6264L29.7366 12.0713C29.7868 11.7366 29.5971 11.3997 29.3588 11.1582C29.1206 10.9167 28.8337 10.7706 28.4497 10.8151L25.0438 10.8812C22.2617 10.9048 22.2664 10.1866 22.271 9.46835C22.2332 7.88786 23.4886 6.60594 25.0231 6.66721L25.7425 6.67349L34.9038 6.65763L39.5087 6.60203L44.1137 6.54642L45.0729 6.55479C46.5603 6.472 47.8472 7.7282 47.885 9.3087Z" fill="#444444"/>
</svg>
